<svg width="8" height="11" viewBox="0 0 8 11" fill="none" xmlns="http://www.w3.org/2000/svg">
<path d="M4 0C4.33472 0 4.60606 0.232305 4.60606 0.518868V10.4811C4.60606 10.7677 4.33472 11 4 11C3.66528 11 3.39394 10.7677 3.39394 10.4811V0.518868C3.39394 0.232305 3.66528 0 4 0Z" fill="#687684"/>
<path d="M0.606061 4.56604C0.940779 4.56604 1.21212 4.79834 1.21212 5.08491V10.4811C1.21212 10.7677 0.940779 11 0.606061 11C0.271343 11 0 10.7677 0 10.4811V5.08491C0 4.79834 0.271343 4.56604 0.606061 4.56604Z" fill="#687684"/>
<path d="M8 3.42453C8 3.13797 7.72866 2.90566 7.39394 2.90566C7.05922 2.90566 6.78788 3.13797 6.78788 3.42453V10.4811C6.78788 10.7677 7.05922 11 7.39394 11C7.72866 11 8 10.7677 8 10.4811V3.42453Z" fill="#687684"/>
</svg>
