<svg width="20" height="17" viewBox="0 0 20 17" fill="none" xmlns="http://www.w3.org/2000/svg">
<path fill-rule="evenodd" clip-rule="evenodd" d="M17.4794 7.33162C17.4794 8.86666 17.9748 10.3738 18.9143 11.6968L19.9275 13.1235C20.1312 13.4104 19.8816 13.7722 19.4798 13.7722H14.6093C14.5509 14.0585 14.4536 14.3393 14.3188 14.6089C14.0839 15.0788 13.7396 15.5058 13.3055 15.8655C12.8714 16.2252 12.3561 16.5105 11.7889 16.7052C11.2218 16.8998 10.6139 17 10 17C9.38616 17 8.77829 16.8998 8.21114 16.7052C7.64399 16.5105 7.12866 16.2252 6.69458 15.8655C6.2605 15.5058 5.91617 15.0788 5.68125 14.6089C5.54647 14.3393 5.44922 14.0585 5.39079 13.7722H0.520193C0.118448 13.7722 -0.131203 13.4104 0.0725336 13.1235L1.08568 11.6968C2.02517 10.3738 2.52059 8.86666 2.52059 7.33162V5.69882C2.52059 2.55145 5.86923 0 10 0C14.1308 0 17.4794 2.55145 17.4794 5.69882V7.33162ZM4.0788 5.69882C4.0788 3.36435 6.60418 1.29114 10 1.29114C13.3958 1.29114 15.9212 3.36435 15.9212 5.69882V7.33162C15.9212 9.09692 16.4909 10.8301 17.5713 12.3516L17.6633 12.481H2.33673L2.42866 12.3516C3.50907 10.8301 4.0788 9.09692 4.0788 7.33162V5.69882ZM6.98258 13.7722C7.01888 13.8886 7.06504 14.0031 7.12084 14.1148C7.27746 14.4281 7.50701 14.7127 7.7964 14.9525C8.08579 15.1923 8.42934 15.3825 8.80744 15.5123C9.18554 15.6421 9.59079 15.7089 10 15.7089C10.4093 15.7089 10.8145 15.6421 11.1926 15.5123C11.5707 15.3825 11.9143 15.1923 12.2037 14.9525C12.4931 14.7127 12.7226 14.4281 12.8792 14.1148C12.9351 14.0031 12.9812 13.8886 13.0175 13.7722H6.98258Z" fill="#687684"/>
</svg>
