<svg width="13" height="13" viewBox="0 0 13 13" fill="none" xmlns="http://www.w3.org/2000/svg">
<path fill-rule="evenodd" clip-rule="evenodd" d="M5.63333 9.1843C5.87266 9.1843 6.06667 9.38488 6.06667 9.63231V11.3866C8.44891 9.94804 9.8822 8.93036 10.7466 8.04181C11.2482 7.52616 11.5241 7.08643 11.6844 6.66712C11.8455 6.24551 11.9167 5.77445 11.9167 5.15217C11.9167 2.92528 10.1706 1.12004 8.01667 1.12004H4.98333C2.82942 1.12004 1.08333 2.92528 1.08333 5.15217C1.08333 7.37905 2.82942 9.1843 4.98333 9.1843H5.63333ZM6.06667 12.6814C11.8422 9.24497 13 7.83748 13 5.15217C13 2.3067 10.7689 0 8.01667 0H4.98333C2.23111 0 0 2.3067 0 5.15217C0 7.99763 2.23111 10.3043 4.98333 10.3043V12.5521C4.98333 12.8949 5.34037 13.1105 5.62839 12.9408C5.77736 12.8531 5.92343 12.7666 6.06667 12.6814Z" fill="#687684"/>
</svg>
