<svg width="13" height="14" viewBox="0 0 13 14" fill="none" xmlns="http://www.w3.org/2000/svg">
<path fill-rule="evenodd" clip-rule="evenodd" d="M2.86086 0.116974C3.64811 -0.110107 4.47915 -0.00392529 5.20099 0.412501L5.49847 0.584118C5.85767 0.791337 6.17339 1.07457 6.43147 1.41413C6.4676 1.46167 6.5324 1.46168 6.56853 1.41413C6.82661 1.07457 7.14233 0.791337 7.50153 0.584118L7.79901 0.412501C8.52085 -0.00392529 9.35189 -0.110107 10.1391 0.116975C10.8957 0.335201 11.556 0.844888 12.0143 1.54996L12.1813 1.80682C12.7145 2.62707 13 3.61989 13 4.6363V4.92317C13 5.37799 12.9517 5.83129 12.8559 6.27302L12.7977 6.54171C12.5787 7.55255 12.1863 8.50474 11.6421 9.34191L11.3029 9.86374C11.0302 10.2833 10.7319 10.6803 10.41 11.0517L10.066 11.4486C9.24052 12.401 8.28607 13.1951 7.23871 13.7993C6.7749 14.0669 6.2251 14.0669 5.76129 13.7993C4.71392 13.1951 3.75948 12.401 2.93405 11.4486L2.59003 11.0517C2.26815 10.6803 1.96977 10.2833 1.69705 9.86374L1.35785 9.34191C0.813663 8.50474 0.421294 7.55255 0.20227 6.54171L0.144051 6.27303C0.0483384 5.83129 0 5.37799 0 4.92317V4.6363C0 3.61989 0.285513 2.62707 0.818698 1.80682L0.985662 1.54996C1.44398 0.844888 2.10431 0.335201 2.86086 0.116974ZM4.69782 1.42404C4.21199 1.14377 3.6592 1.07469 3.13655 1.22544C2.63282 1.37074 2.17973 1.71404 1.8586 2.20805L1.69164 2.46491C1.28701 3.08738 1.06557 3.84931 1.06557 4.6363V4.92317C1.06557 5.29055 1.10463 5.65634 1.18175 6.01226L1.23997 6.28095C1.42874 7.15217 1.76614 7.969 2.23079 8.68382L2.56999 9.20564C2.81441 9.58165 3.08144 9.93686 3.36901 10.2686L3.71303 10.6656C4.4605 11.528 5.32224 12.2442 6.26446 12.7878C6.41395 12.874 6.58605 12.874 6.73554 12.7878C7.67776 12.2442 8.5395 11.528 9.28697 10.6656L9.63099 10.2686C9.91856 9.93686 10.1856 9.58165 10.43 9.20564L10.7692 8.68382C11.2339 7.96901 11.5713 7.15217 11.76 6.28095L11.8183 6.01226C11.8954 5.65634 11.9344 5.29055 11.9344 4.92317V4.6363C11.9344 3.84931 11.713 3.08738 11.3084 2.46491L11.1414 2.20805C10.8203 1.71404 10.3672 1.37074 9.86345 1.22544C9.3408 1.07469 8.78801 1.14377 8.30218 1.42404L8.0047 1.59566C7.61999 1.8176 7.30099 2.18181 7.10214 2.64068C6.74699 3.46021 6.25073 3.45495 5.89786 2.64068C5.69901 2.18181 5.38001 1.8176 4.9953 1.59566L4.69782 1.42404Z" fill="#687684"/>
</svg>
