<svg width="22" height="18" viewBox="0 0 22 18" fill="none" xmlns="http://www.w3.org/2000/svg">
<path fill-rule="evenodd" clip-rule="evenodd" d="M2.15543 5.77461L1.09728 6.32576C0.745639 6.50892 0.297684 6.39756 0.0967461 6.07704C-0.104192 5.75651 0.0179773 5.3482 0.369619 5.16504L9.66595 0.322926C10.4926 -0.107642 11.5074 -0.107642 12.334 0.322925L21.6304 5.16504C21.982 5.3482 22.1042 5.75651 21.9033 6.07704C21.7023 6.39756 21.2544 6.50892 20.9027 6.32576L19.8446 5.77461L18.4312 15.1145C18.181 16.7682 16.6304 18 14.799 18H7.20099C5.36957 18 3.819 16.7682 3.56876 15.1145L2.15543 5.77461ZM11.0001 11.9841C12.7551 11.9841 14.1779 10.6873 14.1779 9.08754C14.1779 7.48782 12.7551 6.191 11.0001 6.191C9.24509 6.191 7.82237 7.48782 7.82237 9.08754C7.82237 10.6873 9.24509 11.9841 11.0001 11.9841Z" fill="#4C9EEB"/>
</svg>
