<svg width="20" height="15" viewBox="0 0 20 15" fill="none" xmlns="http://www.w3.org/2000/svg">
<path fill-rule="evenodd" clip-rule="evenodd" d="M0 1.66667C0 0.746192 0.895431 0 2 0H18C19.1046 0 20 0.746192 20 1.66667V13.3333C20 14.2538 19.1046 15 18 15H2C0.895431 15 0 14.2538 0 13.3333V1.66667ZM2 1.25H18C18.2761 1.25 18.5 1.43655 18.5 1.66667V2.44329L10.1387 7.08847C10.0547 7.13512 9.9453 7.13512 9.86133 7.08847L1.5 2.44329V1.66667C1.5 1.43655 1.72386 1.25 2 1.25ZM1.5 3.9456V13.3333C1.5 13.5635 1.72386 13.75 2 13.75H18C18.2761 13.75 18.5 13.5635 18.5 13.3333V3.9456L10.9707 8.12853C10.3829 8.4551 9.6171 8.4551 9.02927 8.12853L1.5 3.9456Z" fill="#687684"/>
</svg>
