<svg width="12" height="14" viewBox="0 0 12 14" fill="none" xmlns="http://www.w3.org/2000/svg">
<path d="M2.33525 0.157973C2.20417 -0.0526577 1.99164 -0.0526575 1.86055 0.157973L0.122892 2.95008C-0.0409641 3.21337 -0.0409641 3.64024 0.122892 3.90353C0.286749 4.16682 0.552412 4.16682 0.716269 3.90353L1.67832 2.35768V10.4384C1.67832 12.3001 2.61758 13.8094 3.77622 13.8094H6.46154C6.69327 13.8094 6.88112 13.5075 6.88112 13.1352C6.88112 12.7628 6.69327 12.461 6.46154 12.461H3.77622C3.08104 12.461 2.51748 11.5554 2.51748 10.4384V2.35768L3.47954 3.90353C3.64339 4.16682 3.90906 4.16682 4.07291 3.90353C4.23677 3.64024 4.23677 3.21337 4.07291 2.95008L2.33525 0.157973Z" fill="#687684"/>
<path d="M9.66475 13.842C9.79583 14.0527 10.0084 14.0527 10.1394 13.842L11.8771 11.0499C12.041 10.7866 12.041 10.3598 11.8771 10.0965C11.7133 9.83318 11.4476 9.83318 11.2837 10.0965L10.3217 11.6423V3.5616C10.3217 1.69988 9.38242 0.190649 8.22378 0.190649H5.53846C5.30673 0.190649 5.11888 0.492495 5.11888 0.86484C5.11888 1.23719 5.30673 1.53903 5.53846 1.53903H8.22378C8.91896 1.53903 9.48252 2.44457 9.48252 3.5616V11.6423L8.52046 10.0965C8.35661 9.83318 8.09094 9.83318 7.92709 10.0965C7.76323 10.3598 7.76323 10.7866 7.92709 11.0499L9.66475 13.842Z" fill="#687684"/>
</svg>
