<svg width="20" height="17" viewBox="0 0 20 17" fill="none" xmlns="http://www.w3.org/2000/svg">
<path fill-rule="evenodd" clip-rule="evenodd" d="M14.9991 13.6622C13.4113 14.8047 11.3572 15.4937 9.11392 15.4937C4.08044 15.4937 0 12.0253 0 7.74684C0 3.46838 4.08044 0 9.11392 0C14.1474 0 18.2278 3.46838 18.2278 7.74684C18.2278 9.65366 17.4173 11.3996 16.0732 12.7493L19.7775 15.8979C20.0742 16.1501 20.0742 16.5588 19.7775 16.8109C19.4809 17.063 19.0001 17.063 18.7035 16.8109L14.9991 13.6622ZM16.7089 7.74684C16.7089 11.3122 13.3085 14.2025 9.11392 14.2025C4.91936 14.2025 1.51899 11.3122 1.51899 7.74684C1.51899 4.18145 4.91936 1.29114 9.11392 1.29114C13.3085 1.29114 16.7089 4.18145 16.7089 7.74684Z" fill="#687684"/>
</svg>
