<svg width="14" height="14" viewBox="0 0 14 14" fill="none" xmlns="http://www.w3.org/2000/svg">
<path fill-rule="evenodd" clip-rule="evenodd" d="M6.67543 0.138514C6.85468 -0.0461712 7.14532 -0.0461714 7.32457 0.138514L10.6188 3.53253C10.8429 3.76338 10.8429 4.13768 10.6188 4.36853C10.3948 4.59939 10.0315 4.59939 9.8074 4.36853L7.57377 2.06727V9.15261C7.57377 9.47909 7.31688 9.74375 7 9.74375C6.68312 9.74375 6.42623 9.47909 6.42623 9.15261V2.06727L4.1926 4.36853C3.96853 4.59939 3.60524 4.59939 3.38117 4.36853C3.1571 4.13768 3.1571 3.76338 3.38117 3.53253L6.67543 0.138514ZM0.57377 7.61563C0.890655 7.61563 1.14754 7.8803 1.14754 8.20678V11.9901C1.14754 12.4472 1.50718 12.8177 1.95082 12.8177H12.0492C12.4928 12.8177 12.8525 12.4472 12.8525 11.9901V8.20678C12.8525 7.8803 13.1093 7.61563 13.4262 7.61563C13.7431 7.61563 14 7.8803 14 8.20678V11.9901C14 13.1001 13.1266 14 12.0492 14H1.95082C0.873412 14 0 13.1001 0 11.9901V8.20678C0 7.8803 0.256886 7.61563 0.57377 7.61563Z" fill="#687684"/>
</svg>
