<svg width="51" height="31" viewBox="0 0 51 31" fill="none" xmlns="http://www.w3.org/2000/svg">
<path fill-rule="evenodd" clip-rule="evenodd" d="M15.8569 0.0921517C17.5969 -0.00784776 19.3349 0.000152199 21.0749 0.000152199C21.0869 0.000152199 29.8919 0.000152199 29.8919 0.000152199C31.6658 0.000152199 33.4038 -0.00784776 35.1428 0.0921517C36.7238 0.182151 38.2638 0.37415 39.7968 0.803148C43.0238 1.70514 45.8418 3.58913 47.8788 6.26012C49.9038 8.91411 50.9997 12.1631 50.9997 15.4991C50.9997 18.8391 49.9038 22.086 47.8788 24.74C45.8418 27.41 43.0238 29.295 39.7968 30.197C38.2638 30.626 36.7238 30.817 35.1428 30.908C33.4038 31.008 31.6658 30.999 29.9259 30.999C29.9139 30.999 21.1069 31 21.1069 31C19.3349 30.999 17.5969 31.008 15.8569 30.908C14.2769 30.817 12.7369 30.626 11.2039 30.197C7.97696 29.295 5.15897 27.41 3.12198 24.74C1.09699 22.086 0 18.8391 0 15.5001C0 12.1631 1.09699 8.91411 3.12198 6.26012C5.15897 3.58913 7.97696 1.70514 11.2039 0.803148C12.7369 0.37415 14.2769 0.182151 15.8569 0.0921517Z" fill="#59BC6C"/>
</svg>
